<mxfile host="app.diagrams.net" modified="2021-05-15T08:23:10.933Z" agent="5.0 (Windows NT 10.0; Win64; x64) AppleWebKit/537.36 (KHTML, like Gecko) Chrome/86.0.4240.272 Whale/2.9.117.22 Safari/537.36" etag="Cbm-9MkzM1MAIipovMn_" version="14.6.13" type="github">
  <diagram name="Page-2" id="8-0JcssHSYTVtOba-c3N">
    <mxGraphModel dx="1372" dy="760" grid="1" gridSize="10" guides="1" tooltips="1" connect="1" arrows="1" fold="1" page="1" pageScale="1" pageWidth="1240" pageHeight="640" math="0" shadow="0">
      <root>
        <mxCell id="okWrLZw5_lXNAKmH907R-0" />
        <mxCell id="okWrLZw5_lXNAKmH907R-1" parent="okWrLZw5_lXNAKmH907R-0" />
        <mxCell id="okWrLZw5_lXNAKmH907R-2" value="&lt;div&gt;User&lt;/div&gt;" style="shape=umlLifeline;participant=umlActor;perimeter=lifelinePerimeter;whiteSpace=wrap;html=1;container=1;collapsible=0;recursiveResize=0;verticalAlign=top;spacingTop=36;outlineConnect=0;" parent="okWrLZw5_lXNAKmH907R-1" vertex="1">
          <mxGeometry x="130" y="80" width="20" height="480" as="geometry" />
        </mxCell>
        <mxCell id="okWrLZw5_lXNAKmH907R-3" value="&lt;div&gt;LoginPage&lt;/div&gt;" style="shape=umlLifeline;perimeter=lifelinePerimeter;whiteSpace=wrap;html=1;container=1;collapsible=0;recursiveResize=0;outlineConnect=0;" parent="okWrLZw5_lXNAKmH907R-1" vertex="1">
          <mxGeometry x="200" y="80" width="120" height="480" as="geometry" />
        </mxCell>
        <mxCell id="okWrLZw5_lXNAKmH907R-10" value="" style="html=1;points=[];perimeter=orthogonalPerimeter;" parent="okWrLZw5_lXNAKmH907R-3" vertex="1">
          <mxGeometry x="55" y="130" width="10" height="340" as="geometry" />
        </mxCell>
        <mxCell id="okWrLZw5_lXNAKmH907R-5" value="&lt;div&gt;: Controller&lt;/div&gt;" style="shape=umlLifeline;perimeter=lifelinePerimeter;whiteSpace=wrap;html=1;container=1;collapsible=0;recursiveResize=0;outlineConnect=0;" parent="okWrLZw5_lXNAKmH907R-1" vertex="1">
          <mxGeometry x="680" y="80" width="120" height="480" as="geometry" />
        </mxCell>
        <mxCell id="okWrLZw5_lXNAKmH907R-16" value="" style="html=1;points=[];perimeter=orthogonalPerimeter;" parent="okWrLZw5_lXNAKmH907R-5" vertex="1">
          <mxGeometry x="55" y="150" width="10" height="310" as="geometry" />
        </mxCell>
        <mxCell id="5MaHS8Nbi5qwOzJoiK6v-7" value="" style="html=1;points=[];perimeter=orthogonalPerimeter;" parent="okWrLZw5_lXNAKmH907R-5" vertex="1">
          <mxGeometry x="60" y="210" width="10" height="10" as="geometry" />
        </mxCell>
        <mxCell id="5MaHS8Nbi5qwOzJoiK6v-8" value="compare(pw, spw)" style="edgeStyle=orthogonalEdgeStyle;html=1;align=left;spacingLeft=2;endArrow=block;rounded=0;entryX=1;entryY=0;" parent="okWrLZw5_lXNAKmH907R-5" source="okWrLZw5_lXNAKmH907R-16" target="5MaHS8Nbi5qwOzJoiK6v-7" edge="1">
          <mxGeometry relative="1" as="geometry">
            <mxPoint x="385" y="180" as="sourcePoint" />
            <Array as="points">
              <mxPoint x="90" y="190" />
              <mxPoint x="90" y="210" />
            </Array>
          </mxGeometry>
        </mxCell>
        <mxCell id="okWrLZw5_lXNAKmH907R-11" value="Press &quot;login&quot; button" style="html=1;verticalAlign=bottom;endArrow=block;" parent="okWrLZw5_lXNAKmH907R-1" source="okWrLZw5_lXNAKmH907R-2" target="okWrLZw5_lXNAKmH907R-10" edge="1">
          <mxGeometry relative="1" as="geometry">
            <mxPoint x="160" y="160.0000000000001" as="sourcePoint" />
            <mxPoint x="190" y="350" as="targetPoint" />
            <Array as="points">
              <mxPoint x="200" y="210" />
            </Array>
          </mxGeometry>
        </mxCell>
        <mxCell id="okWrLZw5_lXNAKmH907R-12" value="Go to main page" style="html=1;verticalAlign=bottom;endArrow=open;dashed=1;endSize=8;" parent="okWrLZw5_lXNAKmH907R-1" source="okWrLZw5_lXNAKmH907R-10" target="okWrLZw5_lXNAKmH907R-2" edge="1">
          <mxGeometry relative="1" as="geometry">
            <mxPoint x="180.5" y="236" as="targetPoint" />
            <mxPoint x="255" y="360" as="sourcePoint" />
            <Array as="points">
              <mxPoint x="200" y="440" />
            </Array>
          </mxGeometry>
        </mxCell>
        <mxCell id="okWrLZw5_lXNAKmH907R-17" value="enterId(id, pw)" style="html=1;verticalAlign=bottom;endArrow=block;entryX=0;entryY=0;" parent="okWrLZw5_lXNAKmH907R-1" source="okWrLZw5_lXNAKmH907R-10" target="okWrLZw5_lXNAKmH907R-16" edge="1">
          <mxGeometry relative="1" as="geometry">
            <mxPoint x="270" y="180" as="sourcePoint" />
          </mxGeometry>
        </mxCell>
        <mxCell id="suNwEPzj7QO2CEg0qeyJ-0" value="id: Id" style="shape=umlLifeline;perimeter=lifelinePerimeter;whiteSpace=wrap;html=1;container=1;collapsible=0;recursiveResize=0;outlineConnect=0;" parent="okWrLZw5_lXNAKmH907R-1" vertex="1">
          <mxGeometry x="360" y="80" width="120" height="420" as="geometry" />
        </mxCell>
        <mxCell id="suNwEPzj7QO2CEg0qeyJ-2" value="" style="html=1;points=[];perimeter=orthogonalPerimeter;" parent="suNwEPzj7QO2CEg0qeyJ-0" vertex="1">
          <mxGeometry x="55" y="70" width="10" height="10" as="geometry" />
        </mxCell>
        <mxCell id="5MaHS8Nbi5qwOzJoiK6v-26" value="" style="shape=umlDestroy;whiteSpace=wrap;html=1;strokeWidth=3;align=left;" parent="suNwEPzj7QO2CEg0qeyJ-0" vertex="1">
          <mxGeometry x="45" y="405" width="30" height="30" as="geometry" />
        </mxCell>
        <mxCell id="suNwEPzj7QO2CEg0qeyJ-1" value="pw: Password" style="shape=umlLifeline;perimeter=lifelinePerimeter;whiteSpace=wrap;html=1;container=1;collapsible=0;recursiveResize=0;outlineConnect=0;" parent="okWrLZw5_lXNAKmH907R-1" vertex="1">
          <mxGeometry x="520" y="80" width="120" height="260" as="geometry" />
        </mxCell>
        <mxCell id="suNwEPzj7QO2CEg0qeyJ-6" value="" style="html=1;points=[];perimeter=orthogonalPerimeter;" parent="suNwEPzj7QO2CEg0qeyJ-1" vertex="1">
          <mxGeometry x="55.16999999999996" y="100" width="10" height="10" as="geometry" />
        </mxCell>
        <mxCell id="suNwEPzj7QO2CEg0qeyJ-3" value="&lt;div&gt;&amp;lt;&amp;lt;create&amp;gt;&amp;gt;&lt;/div&gt;" style="html=1;verticalAlign=bottom;endArrow=block;" parent="okWrLZw5_lXNAKmH907R-1" source="okWrLZw5_lXNAKmH907R-3" target="suNwEPzj7QO2CEg0qeyJ-2" edge="1">
          <mxGeometry relative="1" as="geometry">
            <mxPoint x="344" y="150" as="sourcePoint" />
            <Array as="points">
              <mxPoint x="340" y="150" />
            </Array>
          </mxGeometry>
        </mxCell>
        <mxCell id="suNwEPzj7QO2CEg0qeyJ-7" value="&lt;div&gt;&amp;lt;&amp;lt;create&amp;gt;&amp;gt;&lt;/div&gt;" style="html=1;verticalAlign=bottom;endArrow=block;" parent="okWrLZw5_lXNAKmH907R-1" source="okWrLZw5_lXNAKmH907R-3" target="suNwEPzj7QO2CEg0qeyJ-6" edge="1">
          <mxGeometry relative="1" as="geometry">
            <mxPoint x="300.00333333333333" y="180" as="sourcePoint" />
            <Array as="points">
              <mxPoint x="420" y="180" />
            </Array>
          </mxGeometry>
        </mxCell>
        <mxCell id="okWrLZw5_lXNAKmH907R-18" value="" style="html=1;verticalAlign=bottom;endArrow=open;dashed=1;endSize=8;" parent="okWrLZw5_lXNAKmH907R-1" source="okWrLZw5_lXNAKmH907R-16" target="okWrLZw5_lXNAKmH907R-10" edge="1">
          <mxGeometry relative="1" as="geometry">
            <mxPoint x="340" y="290" as="targetPoint" />
            <Array as="points">
              <mxPoint x="520" y="430" />
            </Array>
          </mxGeometry>
        </mxCell>
        <mxCell id="5MaHS8Nbi5qwOzJoiK6v-0" value=": PasswordStorage" style="shape=umlLifeline;perimeter=lifelinePerimeter;whiteSpace=wrap;html=1;container=1;collapsible=0;recursiveResize=0;outlineConnect=0;" parent="okWrLZw5_lXNAKmH907R-1" vertex="1">
          <mxGeometry x="840" y="80" width="120" height="480" as="geometry" />
        </mxCell>
        <mxCell id="5MaHS8Nbi5qwOzJoiK6v-4" value="" style="html=1;points=[];perimeter=orthogonalPerimeter;" parent="5MaHS8Nbi5qwOzJoiK6v-0" vertex="1">
          <mxGeometry x="55" y="170" width="10" height="10" as="geometry" />
        </mxCell>
        <mxCell id="5MaHS8Nbi5qwOzJoiK6v-5" value="spw := getPassword(id)" style="html=1;verticalAlign=bottom;endArrow=block;entryX=0;entryY=0;" parent="okWrLZw5_lXNAKmH907R-1" source="okWrLZw5_lXNAKmH907R-16" target="5MaHS8Nbi5qwOzJoiK6v-4" edge="1">
          <mxGeometry relative="1" as="geometry">
            <mxPoint x="980" y="440" as="sourcePoint" />
          </mxGeometry>
        </mxCell>
        <mxCell id="5MaHS8Nbi5qwOzJoiK6v-12" value=": UserCredential" style="shape=umlLifeline;perimeter=lifelinePerimeter;whiteSpace=wrap;html=1;container=1;collapsible=0;recursiveResize=0;outlineConnect=0;" parent="okWrLZw5_lXNAKmH907R-1" vertex="1">
          <mxGeometry x="1000" y="80" width="120" height="480" as="geometry" />
        </mxCell>
        <mxCell id="5MaHS8Nbi5qwOzJoiK6v-17" value="" style="html=1;points=[];perimeter=orthogonalPerimeter;align=left;" parent="5MaHS8Nbi5qwOzJoiK6v-12" vertex="1">
          <mxGeometry x="55" y="300" width="10" height="10" as="geometry" />
        </mxCell>
        <mxCell id="5MaHS8Nbi5qwOzJoiK6v-18" value="signIn(id)" style="html=1;verticalAlign=bottom;endArrow=block;entryX=0;entryY=0;" parent="okWrLZw5_lXNAKmH907R-1" target="5MaHS8Nbi5qwOzJoiK6v-17" edge="1">
          <mxGeometry relative="1" as="geometry">
            <mxPoint x="745" y="380" as="sourcePoint" />
          </mxGeometry>
        </mxCell>
        <mxCell id="5MaHS8Nbi5qwOzJoiK6v-20" value="" style="shape=umlDestroy;whiteSpace=wrap;html=1;strokeWidth=3;align=left;" parent="okWrLZw5_lXNAKmH907R-1" vertex="1">
          <mxGeometry x="565" y="325" width="30" height="30" as="geometry" />
        </mxCell>
        <mxCell id="5MaHS8Nbi5qwOzJoiK6v-21" value="&amp;lt;&amp;lt;destroy&amp;gt;&amp;gt;" style="html=1;verticalAlign=bottom;endArrow=block;" parent="okWrLZw5_lXNAKmH907R-1" source="okWrLZw5_lXNAKmH907R-16" target="suNwEPzj7QO2CEg0qeyJ-1" edge="1">
          <mxGeometry width="80" relative="1" as="geometry">
            <mxPoint x="600" y="320" as="sourcePoint" />
            <mxPoint x="680" y="320" as="targetPoint" />
            <Array as="points">
              <mxPoint x="660" y="340" />
            </Array>
          </mxGeometry>
        </mxCell>
        <mxCell id="5MaHS8Nbi5qwOzJoiK6v-23" value="" style="shape=umlDestroy;whiteSpace=wrap;html=1;strokeWidth=3;align=left;" parent="okWrLZw5_lXNAKmH907R-1" vertex="1">
          <mxGeometry x="405" y="385" width="30" height="30" as="geometry" />
        </mxCell>
        <mxCell id="5MaHS8Nbi5qwOzJoiK6v-24" value="&amp;lt;&amp;lt;destroy&amp;gt;&amp;gt;" style="html=1;verticalAlign=bottom;endArrow=block;" parent="okWrLZw5_lXNAKmH907R-1" source="okWrLZw5_lXNAKmH907R-16" target="suNwEPzj7QO2CEg0qeyJ-0" edge="1">
          <mxGeometry width="80" relative="1" as="geometry">
            <mxPoint x="745" y="350" as="sourcePoint" />
            <mxPoint x="589.8333333333333" y="350" as="targetPoint" />
            <Array as="points">
              <mxPoint x="580" y="400" />
            </Array>
          </mxGeometry>
        </mxCell>
        <mxCell id="5MaHS8Nbi5qwOzJoiK6v-25" value="&amp;lt;&amp;lt;destroy&amp;gt;&amp;gt;" style="html=1;verticalAlign=bottom;endArrow=block;" parent="okWrLZw5_lXNAKmH907R-1" source="okWrLZw5_lXNAKmH907R-16" target="suNwEPzj7QO2CEg0qeyJ-0" edge="1">
          <mxGeometry width="80" relative="1" as="geometry">
            <mxPoint x="745" y="460" as="sourcePoint" />
            <mxPoint x="420" y="500" as="targetPoint" />
            <Array as="points">
              <mxPoint x="590" y="500" />
            </Array>
          </mxGeometry>
        </mxCell>
        <mxCell id="5MaHS8Nbi5qwOzJoiK6v-28" value="" style="html=1;verticalAlign=bottom;endArrow=open;dashed=1;endSize=8;" parent="okWrLZw5_lXNAKmH907R-1" source="okWrLZw5_lXNAKmH907R-16" target="okWrLZw5_lXNAKmH907R-10" edge="1">
          <mxGeometry relative="1" as="geometry">
            <mxPoint x="275" y="440" as="targetPoint" />
            <mxPoint x="745" y="440" as="sourcePoint" />
            <Array as="points">
              <mxPoint x="530" y="530" />
            </Array>
          </mxGeometry>
        </mxCell>
        <mxCell id="5MaHS8Nbi5qwOzJoiK6v-29" value="prompt: &quot;try again&quot;" style="html=1;verticalAlign=bottom;endArrow=open;dashed=1;endSize=8;" parent="okWrLZw5_lXNAKmH907R-1" source="okWrLZw5_lXNAKmH907R-10" target="okWrLZw5_lXNAKmH907R-2" edge="1">
          <mxGeometry relative="1" as="geometry">
            <mxPoint x="109.9975" y="580" as="targetPoint" />
            <mxPoint x="224.81" y="580" as="sourcePoint" />
            <Array as="points">
              <mxPoint x="210" y="540" />
            </Array>
          </mxGeometry>
        </mxCell>
        <mxCell id="5MaHS8Nbi5qwOzJoiK6v-30" value="alt" style="shape=umlFrame;whiteSpace=wrap;html=1;align=center;" parent="okWrLZw5_lXNAKmH907R-1" vertex="1">
          <mxGeometry x="60" y="360" width="1080" height="220" as="geometry" />
        </mxCell>
        <mxCell id="5MaHS8Nbi5qwOzJoiK6v-31" value="val == true" style="text;html=1;strokeColor=none;fillColor=none;align=left;verticalAlign=middle;whiteSpace=wrap;rounded=0;" parent="okWrLZw5_lXNAKmH907R-1" vertex="1">
          <mxGeometry x="130" y="360" width="60" height="30" as="geometry" />
        </mxCell>
        <mxCell id="5MaHS8Nbi5qwOzJoiK6v-32" value="" style="endArrow=none;dashed=1;html=1;strokeWidth=3;exitX=0;exitY=0.454;exitDx=0;exitDy=0;exitPerimeter=0;entryX=1.001;entryY=0.452;entryDx=0;entryDy=0;entryPerimeter=0;" parent="okWrLZw5_lXNAKmH907R-1" source="5MaHS8Nbi5qwOzJoiK6v-30" target="5MaHS8Nbi5qwOzJoiK6v-30" edge="1">
          <mxGeometry width="50" height="50" relative="1" as="geometry">
            <mxPoint x="10" y="440" as="sourcePoint" />
            <mxPoint x="680" y="330" as="targetPoint" />
          </mxGeometry>
        </mxCell>
        <mxCell id="5MaHS8Nbi5qwOzJoiK6v-33" value="[else]" style="text;html=1;strokeColor=none;fillColor=none;align=left;verticalAlign=middle;whiteSpace=wrap;rounded=0;" parent="okWrLZw5_lXNAKmH907R-1" vertex="1">
          <mxGeometry x="70" y="460" width="40" height="30" as="geometry" />
        </mxCell>
      </root>
    </mxGraphModel>
  </diagram>
</mxfile>
